<?xml version="1.0" standalone="no"?>
<!DOCTYPE svg PUBLIC "-//W3C//DTD SVG 20010904//EN"
 "http://www.w3.org/TR/2001/REC-SVG-20010904/DTD/svg10.dtd">
<svg version="1.0" xmlns="http://www.w3.org/2000/svg"
 width="700.000000pt" height="700.000000pt" viewBox="0 0 700.000000 700.000000"
 preserveAspectRatio="xMidYMid meet">
<metadata>
Created by potrace 1.11, written by Peter Selinger 2001-2013
</metadata>
<g transform="translate(0.000000,700.000000) scale(0.100000,-0.100000)"
fill="#000000" stroke="none">
<path d="M3288 5725 c-1 -1 -48 -6 -103 -9 -56 -4 -112 -8 -125 -10 -14 -3
-52 -8 -85 -11 -33 -4 -70 -9 -82 -10 -24 -3 -97 -15 -123 -20 -348 -69 -656
-161 -885 -265 -33 -15 -71 -31 -85 -35 -33 -10 -347 -172 -382 -196 -14 -11
-29 -19 -33 -19 -20 0 -367 -241 -490 -341 -204 -165 -226 -192 -231 -289 -6
-117 75 -211 195 -227 68 -10 113 14 268 141 427 350 895 591 1413 730 104 28
252 61 315 71 22 3 51 7 65 10 191 31 315 40 570 40 243 0 369 -7 485 -25 33
-5 80 -12 105 -15 25 -3 52 -8 60 -10 8 -2 31 -7 50 -10 344 -55 791 -219
1145 -420 183 -104 468 -303 568 -396 46 -42 123 -97 152 -106 17 -6 51 -10
75 -9 192 9 279 241 141 375 -127 123 -490 388 -671 490 -113 64 -163 90 -285
150 -162 79 -344 154 -500 206 -104 34 -327 97 -387 109 -16 4 -40 8 -55 12
-97 19 -175 33 -218 40 -27 4 -57 8 -65 10 -39 7 -101 15 -165 20 -38 3 -86 8
-105 10 -40 6 -526 14 -532 9z"/>
<path d="M3329 4546 c-2 -2 -46 -7 -97 -10 -51 -4 -101 -9 -111 -11 -10 -2
-42 -6 -72 -10 -30 -3 -70 -10 -89 -15 -19 -5 -51 -12 -70 -15 -193 -33 -501
-140 -725 -253 -139 -69 -388 -224 -468 -292 -12 -10 -63 -52 -114 -94 -153
-128 -184 -175 -178 -274 3 -56 21 -95 62 -136 85 -87 221 -85 316 3 87 81
125 113 220 182 45 32 87 63 92 67 36 26 196 118 282 161 250 124 576 220 848
248 102 10 459 10 550 0 453 -52 888 -224 1248 -495 50 -39 119 -95 152 -126
109 -101 200 -129 290 -87 79 36 125 102 130 185 5 92 -19 134 -140 240 -203
177 -409 314 -648 431 -190 92 -405 173 -566 210 -165 39 -280 60 -381 71 -30
3 -66 8 -80 11 -27 6 -445 14 -451 9z"/>
<path d="M3369 3366 c-2 -2 -33 -7 -69 -10 -289 -27 -598 -145 -840 -320 -106
-76 -183 -149 -202 -193 -32 -73 -25 -153 20 -213 31 -41 46 -54 89 -75 81
-39 164 -21 261 58 265 214 538 313 866 315 295 2 562 -83 792 -251 186 -136
186 -136 240 -140 164 -12 283 154 217 304 -22 49 -74 100 -184 181 -240 176
-502 282 -824 333 -48 7 -359 17 -366 11z"/>
<path d="M3399 2174 c-280 -66 -421 -389 -279 -639 78 -137 236 -226 391 -220
122 4 196 36 287 119 114 106 160 260 127 421 -19 93 -113 220 -200 270 -96
55 -221 74 -326 49z"/>
</g>
</svg>
